<svg xmlns="http://www.w3.org/2000/svg" viewBox="0 0 1200 700" role="img" aria-labelledby="title desc">
<title id="title">Flowchart and connector preview</title><desc id="desc">An illustrative SketchDraw flowchart using database and document symbols with curved and elbow arrows, labels, color fills, and an annotation.</desc>
<rect width="1200" height="700" rx="24" fill="#fffdf8"/><rect x="1" y="1" width="1198" height="698" rx="23" fill="none" stroke="#e2e1db"/><text x="54" y="57" font-family="Arial,sans-serif" font-size="12" font-weight="700" letter-spacing="1.5" fill="#85877f">SKETCHDRAW / FLOWCHART PREVIEW</text><text x="54" y="93" font-family="Arial,sans-serif" font-size="25" font-weight="700" fill="#30332e">A small approval workflow</text><text x="54" y="119" font-family="Arial,sans-serif" font-size="13" fill="#777970">Shape-attached connectors, labels, and custom styling on a portable local canvas.</text>
<g fill="none" stroke="#393e3a" stroke-width="3" stroke-linecap="round" stroke-linejoin="round">
<path d="M221 300H333m-12-10 12 10-12 10"/><path d="M499 300h112m-12-10 12 10-12 10"/><path d="M786 300h81m-12-10 12 10-12 10"/><path d="M965 350v118q0 18-18 18H748m12-10-12 10 12 10"/><path d="M613 488H479q-22 0-22-22V354m-10 12 10-12 10 12"/>
<path d="M702 247C672 150 500 156 426 246m5-14-5 14 14-1" stroke-dasharray="8 6"/>
</g>
<g font-family="Arial,sans-serif" text-anchor="middle" stroke="#393e3a" stroke-width="3">
<rect x="73" y="268" width="148" height="64" rx="32" fill="#f4a29d"/><text x="147" y="307" font-size="19" fill="#292d2a" stroke="none">Request</text>
<rect x="333" y="264" width="166" height="72" rx="9" fill="#ffe1a3"/><text x="416" y="307" font-size="17" fill="#292d2a" stroke="none">Validate form</text>
<path d="m702 230 84 70-84 70-84-70z" fill="#b7dfc5"/><text x="702" y="306" font-size="17" fill="#292d2a" stroke="none">Approved?</text>
<rect x="867" y="268" width="196" height="82" rx="5" fill="#a8d8da"/><path d="M883 268v82m164-82v82" fill="none"/><text x="965" y="314" font-size="16" fill="#292d2a" stroke="none">Store decision</text>
<path d="M614 464c0-12 59-22 132-22s132 10 132 22v63c0 12-59 22-132 22s-132-10-132-22z" fill="#a9c9fa"/><path d="M614 464c0 12 59 22 132 22s132-10 132-22m-264 31c0 12 59 22 132 22s132-10 132-22" fill="none"/><text x="746" y="503" font-size="16" fill="#292d2a" stroke="none">Database</text>
</g>
<text x="806" y="406" font-family="Arial,sans-serif" font-size="13" fill="#73766f">Yes</text><text x="532" y="221" font-family="Arial,sans-serif" font-size="13" fill="#73766f">No - request changes</text>
<rect x="55" y="590" width="1090" height="54" rx="10" fill="#f7f7f3" stroke="#e4e3dd"/><text x="78" y="613" font-family="Arial,sans-serif" font-size="11" font-weight="700" fill="#555850">Editable elements</text><text x="78" y="632" font-family="Arial,sans-serif" font-size="11" fill="#777970">Move or resize symbols, restyle fills, adjust connectors, then save the whole diagram in a local .sketch file.</text>
</svg>
