<svg xmlns="http://www.w3.org/2000/svg" viewBox="0 0 1440 880" role="img" aria-labelledby="title desc">
  <title id="title">SketchDraw desktop launch screen</title>
  <desc id="desc">Current desktop launch layout with File and View menus, a welcome card, Create a sketch and Open a file actions, a sample flowchart illustration, and recent sketches.</desc>
  <defs>
    <linearGradient id="home-canvas" x2="0" y2="1"><stop stop-color="#f7f8f6"/><stop offset="1" stop-color="#eef1ed"/></linearGradient>
    <linearGradient id="home-card" x2="1" y2="1"><stop stop-color="#fff"/><stop offset="1" stop-color="#f7f8f3"/></linearGradient>
    <filter id="home-shadow" x="-20%" y="-20%" width="140%" height="150%"><feDropShadow dx="0" dy="12" stdDeviation="16" flood-color="#344236" flood-opacity=".09"/></filter>
  </defs>
  <rect width="1440" height="880" rx="20" fill="#232821"/><rect x="8" y="8" width="1424" height="864" rx="15" fill="url(#home-canvas)"/>
  <rect x="8" y="8" width="1424" height="60" rx="15" fill="#fbfcfb"/><rect x="8" y="51" width="1424" height="17" fill="#fbfcfb"/><path d="M8 68h1424" stroke="#e2e7e2"/>
  <rect x="25" y="22" width="29" height="29" rx="8" fill="#252822"/><path d="M31 29c3-4 12-4 15-1 2 3 0 5-5 7-5 1-7 3-5 6 2 3 9 3 13 0" fill="none" stroke="#f7f4ec" stroke-width="2" stroke-linecap="round"/><circle cx="48" cy="29" r="2.4" fill="#f29a83"/><text x="64" y="41" fill="#303a33" font-family="Segoe UI,Arial,sans-serif" font-size="13" font-weight="700">SketchDraw</text>
  <g font-family="Segoe UI,Arial,sans-serif" font-size="11" font-weight="600" fill="#566258">
    <rect x="260" y="18" width="58" height="35" rx="9" fill="#edf2ee"/><text x="289" y="40" text-anchor="middle">File</text><path d="m308 33 4 4 4-4" fill="none" stroke="#647267" stroke-width="1.3"/>
    <rect x="324" y="18" width="62" height="35" rx="9" fill="#edf2ee"/><text x="355" y="40" text-anchor="middle">View</text><path d="m375 33 4 4 4-4" fill="none" stroke="#647267" stroke-width="1.3"/>
  </g>
  <g fill="none" stroke="#79857b" stroke-width="1.5" stroke-linecap="round" stroke-linejoin="round">
    <rect x="1036" y="20" width="37" height="34" rx="9" fill="#f4f7f4" stroke="#e2e7e2"/><path d="M1047 30h15v13h-15zM1052 30v13m5-13v13M1047 36h15"/>
    <rect x="1080" y="20" width="37" height="34" rx="9" fill="#f4f7f4" stroke="#e2e7e2"/><path d="M1090 43V31h17v12m-20 4h23"/>
    <path d="m1140 31-7 6 7 6m-6-6h16m0 0a7 7 0 0 1 7 7"/>
    <path d="m1190 31 7 6-7 6m6-6h-16m0 0a7 7 0 0 0-7 7"/>
    <rect x="1244" y="22" width="17" height="20" rx="2"/><path d="M1240 27h4m17 0h4M1249 22v-3h7v3"/>
    <circle cx="1307" cy="37" r="11"/><path d="M1307 31v12m-6-6h12"/>
  </g>
  <text x="1330" y="41" fill="#48644e" font-family="DM Mono,Consolas,monospace" font-size="10">100%</text><circle cx="1400" cy="37" r="5" fill="#78a37d"/>
  <g font-family="Segoe UI,Arial,sans-serif">
    <rect x="28" y="92" width="866" height="756" rx="28" fill="url(#home-card)" stroke="#e5e9e2" filter="url(#home-shadow)"/>
    <rect x="72" y="131" width="49" height="49" rx="15" fill="#eff5ec" stroke="#dce7da"/><path d="M96.5 143v25m-12.5-12.5h25m-21.2-8.8 17.6 17.6m0-17.6-17.6 17.6" stroke="#6a8267" stroke-width="1.6" stroke-linecap="round"/>
    <text x="72" y="215" fill="#7d897c" font-size="10" font-weight="700" letter-spacing="1.7">YOUR IDEAS, ON ONE CANVAS</text>
    <text x="72" y="282" fill="#26342c" font-size="49" font-weight="650" letter-spacing="-2.4">Think it through.</text><text x="72" y="338" fill="#70896f" font-size="50" font-style="italic" font-family="Georgia,serif">Draw it out.</text>
    <text x="72" y="383" fill="#777f77" font-size="14">A calm, capable space for diagrams, plans, and the</text><text x="72" y="405" fill="#777f77" font-size="14">ideas in between. Start a sketch or pick up where you left off.</text>
    <rect x="72" y="438" width="190" height="48" rx="11" fill="#527257"/><text x="94" y="468" fill="#fff" font-size="13" font-weight="700">Create a sketch</text><path d="M230 462h17m-6-6 6 6-6 6" fill="none" stroke="#fff" stroke-width="1.6" stroke-linecap="round" stroke-linejoin="round"/>
    <rect x="272" y="438" width="146" height="48" rx="11" fill="#fff" stroke="#e2e7df"/><text x="295" y="468" fill="#4e5b50" font-size="13" font-weight="600">Open a file</text>
    <rect x="72" y="527" width="35" height="39" rx="9" fill="#fff" stroke="#e3e9e0"/><path d="M82 535h10l6 6v17H82zM92 535v6h6m-12 5h8m-8 4h8" fill="none" stroke="#67836a" stroke-width="1.3" stroke-linejoin="round"/><text x="120" y="543" fill="#455448" font-size="11" font-weight="700">Private by design</text><text x="120" y="560" fill="#788078" font-size="10">Your portable .sketch files stay in folders you choose.</text>
    <text x="72" y="817" fill="#9a9f98" font-size="9">© 2026 Toushal Sampat. All rights reserved.</text>

    <rect x="482" y="132" width="366" height="570" rx="20" fill="#f4f7f2" stroke="#e6ebe3"/>
    <text x="507" y="160" fill="#718171" font-size="9" font-weight="700" letter-spacing="1.4">SKETCHDRAW CANVAS</text><rect x="788" y="145" width="37" height="22" rx="8" fill="#fff" stroke="#e6ebe3"/><text x="806.5" y="160" text-anchor="middle" fill="#78857b" font-size="8">FLOW 01</text>
    <path d="M589 272h51m90 0h42m-71 30v68m72-68v68m-72 0h-62m62 0h72m-134 0v45m134-45v45" fill="none" stroke="#80917f" stroke-width="2"/>
    <path d="m633 267 7 5-7 5m126-5 7 5-7 5m-121 58 5 7 5-7m61 0 5 7 5-7m-130 37-5 7 5 7m126 0 5 7 5-7" fill="none" stroke="#80917f" stroke-width="1.8"/>
    <g stroke-width="1.5"><rect x="514" y="244" width="75" height="57" rx="13" fill="#f1ebf8" stroke="#b8a8cc"/><rect x="640" y="244" width="91" height="57" rx="13" fill="#fff3d6" stroke="#d6bd83"/><rect x="772" y="244" width="57" height="57" rx="13" fill="#e7f1e6" stroke="#a7bca2"/><rect x="514" y="369" width="75" height="59" rx="13" fill="#fff" stroke="#d8e0d5"/><rect x="640" y="369" width="91" height="59" rx="13" fill="#e9f0fb" stroke="#aabbd5"/><rect x="772" y="369" width="57" height="59" rx="13" fill="#fff" stroke="#d8e0d5"/></g>
    <g fill="#58665a" font-size="9" font-weight="650" text-anchor="middle"><text x="551" y="278">Plan</text><text x="685" y="278">Choose</text><text x="800" y="278">Review</text><text x="551" y="404">Write</text><text x="685" y="404">Build</text><text x="800" y="404">Share</text></g>
    <circle cx="814" cy="214" r="11" fill="#eff5ec"/><path d="M814 207v14m-7-7h14m-12-5 10 10m0-10-10 10" stroke="#88a17e" stroke-width="1.2"/>
    <rect x="505" y="734" width="320" height="40" rx="10" fill="#f4f7f2"/><text x="525" y="759" fill="#78877a" font-size="11">A little clarity, one connection at a time.</text>

    <rect x="922" y="92" width="490" height="756" rx="24" fill="#fff" stroke="#e7ebe5" filter="url(#home-shadow)"/>
    <text x="953" y="131" fill="#879087" font-size="9" font-weight="700" letter-spacing="1.5">YOUR WORKSPACE</text><text x="953" y="164" fill="#313a32" font-size="21" font-weight="650">Recent sketches</text><rect x="1352" y="137" width="29" height="29" rx="10" fill="#f5f8f2" stroke="#e4eae1"/><text x="1366.5" y="156" text-anchor="middle" fill="#657b65" font-size="10">3</text><text x="953" y="188" fill="#8a9189" font-size="11">Pick up right where you left off.</text><path d="M953 207h428" stroke="#edf0eb"/>
    <g>
      <rect x="947" y="224" width="438" height="86" rx="13" fill="#fbfcfb" stroke="#edf0eb"/><rect x="961" y="243" width="38" height="44" rx="10" fill="#f7faf5" stroke="#e4ebe1"/><path d="M972 251h10l6 6v22h-16zM982 251v6h6m-12 5h8m-8 4h8" fill="none" stroke="#718170" stroke-width="1.2"/><text x="1012" y="259" fill="#404a41" font-size="11" font-weight="650">Project planning.sketch</text><text x="1012" y="278" fill="#989f97" font-size="9">…/Sketches/Project planning.sketch</text><text x="1357" y="267" text-anchor="end" fill="#6e896f" font-size="9">Open →</text>
      <rect x="947" y="319" width="438" height="86" rx="13" fill="#fbfcfb" stroke="#edf0eb"/><rect x="961" y="338" width="38" height="44" rx="10" fill="#f7faf5" stroke="#e4ebe1"/><path d="M972 346h10l6 6v22h-16zM982 346v6h6m-12 5h8m-8 4h8" fill="none" stroke="#718170" stroke-width="1.2"/><text x="1012" y="354" fill="#404a41" font-size="11" font-weight="650">Workshop notes.sketch</text><text x="1012" y="373" fill="#989f97" font-size="9">…/Sketches/Workshop notes.sketch</text><text x="1357" y="362" text-anchor="end" fill="#6e896f" font-size="9">Open →</text>
      <rect x="947" y="414" width="438" height="86" rx="13" fill="#fbfcfb" stroke="#edf0eb"/><rect x="961" y="433" width="38" height="44" rx="10" fill="#f7faf5" stroke="#e4ebe1"/><path d="M972 441h10l6 6v22h-16zM982 441v6h6m-12 5h8m-8 4h8" fill="none" stroke="#718170" stroke-width="1.2"/><text x="1012" y="449" fill="#404a41" font-size="11" font-weight="650">Research board.sketch</text><text x="1012" y="468" fill="#989f97" font-size="9">…/Sketches/Research board.sketch</text><text x="1357" y="457" text-anchor="end" fill="#6e896f" font-size="9">Open →</text>
    </g>
    <rect x="952" y="790" width="9" height="9" rx="5" fill="#78a27d"/><text x="968" y="798" fill="#8b968d" font-size="10">Saved on this device</text>
  </g>
</svg>